#N canvas 435 269 1389 727 10;
#X floatatom 382 1233 5 0 0 0 - - -, f 5;
#X obj 374 1113 * 180;
#X obj 362 1163 / 3.14159;
#X floatatom 432 1359 5 0 0 0 - - -, f 5;
#X floatatom 166 1067 5 0 0 0 - - -, f 5;
#X obj 42 1103 +, f 4;
#X floatatom 20 1207 5 0 0 0 - - -, f 5;
#X obj 266 1213 loadbang;
#X msg 400 1295 20;
#X obj 64 1401 exp;
#X obj 60 1287 snapto;
#X msg 148 1297 1.05946;
#X obj 48 1349 * 1.05946;
#X msg 314 1045 1.5708;
#X floatatom 138 1553 5 0 0 0 - - -, f 5;
#X floatatom 134 1235 5 0 0 0 - - -, f 5;
#X obj 142 1179 /;
#X obj 188 1123 r \$0-prec;
#X obj 156 1423 / 5.28145;
#X msg 242 1359 440;
#X obj 90 1491 *;
#X floatatom 382 1233 5 0 0 0 - - -, f 5;
#X obj 374 1113 * 180;
#X obj 362 1163 / 3.14159;
#X floatatom 432 1359 5 0 0 0 - - -, f 5;
#X floatatom 166 1067 5 0 0 0 - - -, f 5;
#X obj 42 1103 +, f 4;
#X floatatom 20 1207 5 0 0 0 - - -, f 5;
#X obj 266 1213 loadbang;
#X msg 400 1295 20;
#X obj 64 1401 exp;
#X obj 60 1287 snapto;
#X msg 148 1297 1.05946;
#X obj 48 1349 * 1.05946;
#X msg 314 1045 1.5708;
#X floatatom 138 1553 5 0 0 0 - - -, f 5;
#X floatatom 134 1235 5 0 0 0 - - -, f 5;
#X obj 142 1179 /;
#X obj 188 1123 r \$0-prec;
#X obj 156 1423 / 5.28145;
#X msg 242 1359 440;
#X obj 90 1491 *;
#X floatatom 382 1233 5 0 0 0 - - -, f 5;
#X obj 374 1113 * 180;
#X obj 362 1163 / 3.14159;
#X floatatom 432 1359 5 0 0 0 - - -, f 5;
#X floatatom 166 1067 5 0 0 0 - - -, f 5;
#X obj 42 1103 +, f 4;
#X floatatom 20 1207 5 0 0 0 - - -, f 5;
#X obj 266 1213 loadbang;
#X msg 400 1295 20;
#X obj 64 1401 exp;
#X obj 60 1287 snapto;
#X msg 148 1297 1.05946;
#X obj 48 1349 * 1.05946;
#X msg 314 1045 1.5708;
#X floatatom 138 1553 5 0 0 0 - - -, f 5;
#X floatatom 134 1235 5 0 0 0 - - -, f 5;
#X obj 142 1179 /;
#X obj 188 1123 r \$0-prec;
#X obj 156 1423 / 5.28145;
#X msg 242 1359 440;
#X obj 90 1491 *;
#X floatatom 382 1233 5 0 0 0 - - -, f 5;
#X obj 374 1113 * 180;
#X obj 362 1163 / 3.14159;
#X floatatom 432 1359 5 0 0 0 - - -, f 5;
#X floatatom 166 1067 5 0 0 0 - - -, f 5;
#X obj 42 1103 +, f 4;
#X floatatom 20 1207 5 0 0 0 - - -, f 5;
#X obj 266 1213 loadbang;
#X msg 400 1295 20;
#X obj 64 1401 exp;
#X obj 60 1287 snapto;
#X msg 148 1297 1.05946;
#X obj 48 1349 * 1.05946;
#X msg 314 1045 1.5708;
#X floatatom 138 1553 5 0 0 0 - - -, f 5;
#X floatatom 134 1235 5 0 0 0 - - -, f 5;
#X obj 142 1179 /;
#X obj 188 1123 r \$0-prec;
#X obj 156 1423 / 5.28145;
#X msg 242 1359 440;
#X obj 90 1491 *;
#X obj 129 44 loadbang;
#X obj 84 75 inlet;
#X obj 211 75 inlet;
#X text 81 53 Angle;
#X obj 277 71 inlet;
#X obj 123 136 /;
#X obj 97 214 outlet;
#X obj 144 96 bng 15 250 50 0 empty empty empty 17 7 0 10 -262144 -1
-1;
#X text 197 51 Box Count;
#X text 276 52 Start Angle;
#X obj 89 134 -;
#X obj 99 163 /;
#X obj 97 193 int;
#X obj 172 145 bng 15 250 50 0 empty empty empty 17 7 0 10 -262144
-1 -1;
#X msg 130 72 6.28319;
#X floatatom 242 102 5 0 0 0 - - -, f 5;
#X connect 1 0 2 0;
#X connect 2 0 0 0;
#X connect 4 0 5 1;
#X connect 4 0 16 0;
#X connect 5 0 6 0;
#X connect 5 0 10 0;
#X connect 7 0 8 0;
#X connect 7 0 11 0;
#X connect 7 0 19 0;
#X connect 8 0 3 0;
#X connect 9 0 20 0;
#X connect 10 0 12 0;
#X connect 11 0 12 1;
#X connect 12 0 9 0;
#X connect 13 0 4 0;
#X connect 15 0 10 1;
#X connect 16 0 15 0;
#X connect 17 0 16 1;
#X connect 18 0 20 1;
#X connect 19 0 18 0;
#X connect 20 0 14 0;
#X connect 22 0 23 0;
#X connect 23 0 21 0;
#X connect 25 0 26 1;
#X connect 25 0 37 0;
#X connect 26 0 27 0;
#X connect 26 0 31 0;
#X connect 28 0 29 0;
#X connect 28 0 32 0;
#X connect 28 0 40 0;
#X connect 29 0 24 0;
#X connect 30 0 41 0;
#X connect 31 0 33 0;
#X connect 32 0 33 1;
#X connect 33 0 30 0;
#X connect 34 0 25 0;
#X connect 36 0 31 1;
#X connect 37 0 36 0;
#X connect 38 0 37 1;
#X connect 39 0 41 1;
#X connect 40 0 39 0;
#X connect 41 0 35 0;
#X connect 43 0 44 0;
#X connect 44 0 42 0;
#X connect 46 0 47 1;
#X connect 46 0 58 0;
#X connect 47 0 48 0;
#X connect 47 0 52 0;
#X connect 49 0 50 0;
#X connect 49 0 53 0;
#X connect 49 0 61 0;
#X connect 50 0 45 0;
#X connect 51 0 62 0;
#X connect 52 0 54 0;
#X connect 53 0 54 1;
#X connect 54 0 51 0;
#X connect 55 0 46 0;
#X connect 57 0 52 1;
#X connect 58 0 57 0;
#X connect 59 0 58 1;
#X connect 60 0 62 1;
#X connect 61 0 60 0;
#X connect 62 0 56 0;
#X connect 64 0 65 0;
#X connect 65 0 63 0;
#X connect 67 0 68 1;
#X connect 67 0 79 0;
#X connect 68 0 69 0;
#X connect 68 0 73 0;
#X connect 70 0 71 0;
#X connect 70 0 74 0;
#X connect 70 0 82 0;
#X connect 71 0 66 0;
#X connect 72 0 83 0;
#X connect 73 0 75 0;
#X connect 74 0 75 1;
#X connect 75 0 72 0;
#X connect 76 0 67 0;
#X connect 78 0 73 1;
#X connect 79 0 78 0;
#X connect 80 0 79 1;
#X connect 81 0 83 1;
#X connect 82 0 81 0;
#X connect 83 0 77 0;
#X connect 84 0 98 0;
#X connect 85 0 94 0;
#X connect 86 0 89 1;
#X connect 86 0 91 0;
#X connect 88 0 99 0;
#X connect 89 0 95 1;
#X connect 91 0 89 0;
#X connect 91 0 95 0;
#X connect 94 0 95 0;
#X connect 95 0 96 0;
#X connect 96 0 90 0;
#X connect 97 0 94 0;
#X connect 98 0 89 0;
#X connect 99 0 97 0;
#X connect 99 0 94 1;
