#N canvas 67 87 1853 993 10;
#X obj 19 271 cup;
#X obj 19 154 loadbang;
#X msg 19 229 0;
#X obj 21 84 hsl 128 15 20 200 0 0 empty empty BPM -2 -8 0 10 -262144
-1 -1 8756 1;
#X floatatom 18 105 5 0 0 0 - - -, f 5;
#X obj 18 129 s \$0-bpm;
#X obj 181 83 hsl 128 15 0.1 1 0 0 empty empty Duty_Cycle -2 -8 0 10
-262144 -1 -1 10244 1;
#X floatatom 178 106 5 0 0 0 - - -, f 5;
#X obj 178 129 s \$0-dcycle;
#X obj 19 189 bng 15 250 50 0 empty empty empty 17 7 0 10 -262144 -1
-1;
#X obj 182 164 r \$0-bpm;
#X obj 327 89 s \$0-timestep;
#X obj 159 3 loadbang;
#X obj 87 202 r \$0-timestep;
#X floatatom 215 321 5 0 0 0 - - -, f 5;
#X floatatom 27 338 5 0 0 0 - - -, f 5;
#X obj 230 267 r \$0-timestep;
#X obj 60 237 metro;
#X obj 215 290 /;
#X obj 215 246 /;
#X msg 182 221 60000;
#X obj 121 251 r \$0-dcycle;
#X obj 19 423 <;
#X obj 110 376 *;
#X floatatom 65 402 5 0 0 0 - - -, f 5;
#X obj 153 289 bng 15 250 50 0 empty empty empty 17 7 0 10 -262144
-1 -1;
#X obj 437 914 *~;
#X obj 425 790 scale-to-freq;
#X obj 542 638 vsl 15 128 0 10 0 0 empty empty scale 0 -9 0 10 -262144
-1 -1 1300 1;
#X obj 667 944 dac~;
#X obj 403 829 osc~;
#X obj 19 494 line;
#X msg 327 67 10;
#X obj 173 361 /;
#X obj 19 448 tgl 15 0 empty empty empty 17 7 0 10 -262144 -1 -1 0
1;
#X obj 625 512 vsl 15 128 0 15 0 0 empty empty empty 0 -9 0 10 -262144
-1 -1 2400 1;
#X obj 484 179 leapmotion;
#X obj 483 102 metro 50;
#X obj 483 58 tgl 30 0 empty empty Run_Leapmotion? 0 -6 0 15 -262144
-1 -1 1 1;
#X msg 437 102 info;
#X obj 482 8 loadbang;
#X obj 512 202 route hand;
#X obj 455 232 s hand;
#X msg 626 96 hands_direction 1;
#X msg 626 41 general 1;
#X msg 626 67 hands_palm_normal 1;
#X msg 626 121 fingers_direction 1;
#X obj 649 324 route 0 1 2 3 4;
#X obj 649 295 route fingers;
#X obj 625 386 route direction;
#X obj 625 484 angle-to-disc;
#X obj 944 263 loadbang;
#X obj 524 372 route direction;
#X obj 303 348 loadbang;
#X obj 733 519 vsl 15 128 0 15 0 0 empty empty empty 0 -9 0 10 -262144
-1 -1 8600 1;
#X obj 733 486 angle-to-disc;
#X obj 723 386 route direction;
#X obj 821 505 vsl 15 128 0 15 0 0 empty empty empty 0 -9 0 10 -262144
-1 -1 4900 1;
#X obj 821 481 angle-to-disc;
#X obj 821 385 route direction;
#X obj 929 521 vsl 15 128 0 15 0 0 empty empty empty 0 -9 0 10 -262144
-1 -1 2500 1;
#X obj 930 491 angle-to-disc;
#X obj 921 384 route direction;
#X obj 525 471 vector-angle3;
#X obj 524 543 angle-to-disc;
#X obj 555 812 scale-to-freq;
#X obj 494 831 osc~;
#X obj 704 825 scale-to-freq;
#X obj 605 844 osc~;
#X obj 639 781 + 2;
#X obj 463 860 +~, f 4;
#X obj 418 858 +~;
#X obj 441 885 /~ 3;
#X obj 60 199 tgl 15 0 empty empty empty 17 7 0 10 -262144 -1 -1 1
1;
#X obj 757 787 + 4;
#X obj 939 465 line;
#X obj 821 457 line;
#X obj 739 459 line;
#X obj 625 458 line;
#X obj 254 451 change;
#X obj 254 517 bang;
#X obj 604 727 f;
#X obj 435 717 f;
#X floatatom 435 749 5 0 0 0 - - -, f 5;
#X msg 625 434 \$1 100;
#X msg 735 434 \$1 100;
#X msg 821 434 \$1 100;
#X msg 930 433 \$1 100;
#X msg 1020 297 -0.1;
#X msg 973 297 0 -1 0;
#X msg 944 297 40;
#X obj 512 226 route 0 1;
#X obj 673 884 +~;
#X obj 820 10 loadbang;
#X obj 820 61 soundfiler;
#N canvas 0 50 450 250 (subpatch) 0;
#X array percsound 21559 float 2;
#X coords 0 1 21559 -1 200 140 1;
#X restore 1476 33 graph;
#X floatatom 820 89 5 0 0 0 - - -, f 5;
#X obj 1081 8 loadbang;
#X obj 1081 60 soundfiler;
#X floatatom 1081 90 5 0 0 0 - - -, f 5;
#X msg 820 33 read -resize Samples/perc.wav percsound;
#N canvas 0 50 450 250 (subpatch) 0;
#X array snaresound 7915 float 2;
#X coords 0 1 7915 -1 200 140 1;
#X restore 1623 15 graph;
#X msg 1081 33 read -resize Samples/snare.wav snaresound;
#X obj 182 192 t b f;
#X obj 1365 269 route fingers;
#X obj 1391 365 route direction;
#X obj 1288 370 route direction;
#X obj 1489 365 route direction;
#X obj 1587 364 route direction;
#X obj 1687 363 route direction;
#X obj 1084 467 vsl 15 128 -1 5 0 0 empty empty scale 0 -9 0 10 -262144
-1 -1 0 1;
#X obj 1390 496 vsl 15 128 1 4 0 0 empty empty empty 0 -9 0 10 -262144
-1 -1 3200 1;
#X obj 1391 463 angle-to-disc;
#X obj 1211 292 loadbang;
#X obj 1488 487 vsl 15 128 1 4 0 0 empty empty empty 0 -9 0 10 -262144
-1 -1 3400 1;
#X obj 1488 460 angle-to-disc;
#X obj 1587 489 vsl 15 128 1 4 0 0 empty empty empty 0 -9 0 10 -262144
-1 -1 12700 1;
#X obj 1587 462 angle-to-disc;
#X obj 1686 490 vsl 15 128 1 4 0 0 empty empty empty 0 -9 0 10 -262144
-1 -1 0 1;
#X obj 1687 460 angle-to-disc;
#X floatatom 1409 490 5 0 0 0 - - -, f 5;
#X obj 1292 544 angle-to-disc;
#X obj 1687 436 line;
#X obj 1587 437 line;
#X obj 1488 436 line;
#X obj 1391 440 line;
#X msg 1391 416 \$1 100;
#X msg 1488 411 \$1 100;
#X msg 1587 414 \$1 100;
#X msg 1687 414 \$1 100;
#N canvas 67 89 927 991 mux4 0;
#X obj 68 61 inlet;
#X obj 171 231 inlet;
#X obj 305 150 == 2;
#X obj 133 151 == 0;
#X obj 225 153 == 1;
#X obj 385 151 == 3;
#X obj 231 403 outlet;
#X obj 170 286 spigot;
#X floatatom 221 356 5 0 0 0 - - -, f 5;
#X obj 150 248 f;
#X obj 1144 794 spigot;
#X obj 1144 770 t b f;
#X obj 1144 794 spigot;
#X obj 1144 770 t b f;
#X obj 193 200 t b f;
#X obj 245 231 inlet;
#X obj 244 286 spigot;
#X obj 224 248 f;
#X obj 267 200 t b f;
#X obj 327 231 inlet;
#X obj 326 286 spigot;
#X obj 306 248 f;
#X obj 349 200 t b f;
#X obj 418 240 inlet;
#X obj 417 295 spigot;
#X obj 397 257 f;
#X obj 440 209 t b f;
#X connect 0 0 3 0;
#X connect 0 0 4 0;
#X connect 0 0 2 0;
#X connect 0 0 5 0;
#X connect 1 0 9 1;
#X connect 2 0 22 0;
#X connect 3 0 14 0;
#X connect 4 0 18 0;
#X connect 5 0 26 0;
#X connect 7 0 8 0;
#X connect 8 0 6 0;
#X connect 9 0 7 0;
#X connect 11 0 10 0;
#X connect 11 1 10 1;
#X connect 13 0 12 0;
#X connect 13 1 12 1;
#X connect 14 0 9 0;
#X connect 14 1 7 1;
#X connect 15 0 17 1;
#X connect 16 0 8 0;
#X connect 17 0 16 0;
#X connect 18 0 17 0;
#X connect 18 1 16 1;
#X connect 19 0 21 1;
#X connect 20 0 8 0;
#X connect 21 0 20 0;
#X connect 22 0 21 0;
#X connect 22 1 20 1;
#X connect 23 0 25 1;
#X connect 24 0 8 0;
#X connect 25 0 24 0;
#X connect 26 0 25 0;
#X connect 26 1 24 1;
#X restore 1412 686 pd mux4;
#X obj 1404 774 == 1;
#X obj 1479 774 == 2;
#X obj 1405 822 spigot;
#X obj 1405 798 t b f;
#X obj 1478 819 spigot;
#X obj 1478 795 t b f;
#X msg 1433 870 stop;
#X obj 1405 849 t b b;
#X obj 1405 892 tabplay~ percsound;
#X msg 1558 868 stop;
#X obj 1531 847 t b b;
#X obj 1530 890 tabplay~ snaresound;
#X obj 1541 818 spigot;
#X obj 1541 795 t b f;
#X obj 1453 939 +~;
#X obj 159 22 t b b b;
#X obj 1542 773 >= 3;
#X obj 1633 239 loadbang;
#X msg 1665 271 0 -1 0;
#X msg 1709 272 0;
#X obj 926 795 / 1;
#X obj 1105 644 == 2;
#X obj 1145 645 >= 3;
#X msg 1052 743 1;
#X msg 1091 744 2;
#X msg 1128 742 4;
#X obj 1066 644 == 1;
#X msg 1008 744 0.5;
#X obj 965 830 mod 4;
#X obj 254 396 mod 4;
#X obj 1031 644 == 0;
#X obj 985 646 <= -1;
#X msg 970 742 0.25;
#X obj 1439 716 int;
#X obj 1042 808 change;
#X obj 1361 805 bang;
#N canvas 67 89 927 991 mux4 0;
#X obj 68 61 inlet;
#X obj 171 231 inlet;
#X obj 305 150 == 2;
#X obj 133 151 == 0;
#X obj 225 153 == 1;
#X obj 385 151 == 3;
#X obj 231 403 outlet;
#X obj 170 286 spigot;
#X floatatom 221 356 5 0 0 0 - - -, f 5;
#X obj 150 248 f;
#X obj 1144 794 spigot;
#X obj 1144 770 t b f;
#X obj 1144 794 spigot;
#X obj 1144 770 t b f;
#X obj 193 200 t b f;
#X obj 245 231 inlet;
#X obj 244 286 spigot;
#X obj 224 248 f;
#X obj 267 200 t b f;
#X obj 327 231 inlet;
#X obj 326 286 spigot;
#X obj 306 248 f;
#X obj 349 200 t b f;
#X obj 418 240 inlet;
#X obj 417 295 spigot;
#X obj 397 257 f;
#X obj 440 209 t b f;
#X connect 0 0 3 0;
#X connect 0 0 4 0;
#X connect 0 0 2 0;
#X connect 0 0 5 0;
#X connect 1 0 9 1;
#X connect 2 0 22 0;
#X connect 3 0 14 0;
#X connect 4 0 18 0;
#X connect 5 0 26 0;
#X connect 7 0 8 0;
#X connect 8 0 6 0;
#X connect 9 0 7 0;
#X connect 11 0 10 0;
#X connect 11 1 10 1;
#X connect 13 0 12 0;
#X connect 13 1 12 1;
#X connect 14 0 9 0;
#X connect 14 1 7 1;
#X connect 15 0 17 1;
#X connect 16 0 8 0;
#X connect 17 0 16 0;
#X connect 18 0 17 0;
#X connect 18 1 16 1;
#X connect 19 0 21 1;
#X connect 20 0 8 0;
#X connect 21 0 20 0;
#X connect 22 0 21 0;
#X connect 22 1 20 1;
#X connect 23 0 25 1;
#X connect 24 0 8 0;
#X connect 25 0 24 0;
#X connect 26 0 25 0;
#X connect 26 1 24 1;
#X restore 632 704 pd mux4;
#X obj 676 914 /~ 2;
#X obj 19 373 mod;
#X obj 1416 916 *~ 1.2;
#X obj 1538 929 *~ 4;
#X msg 178 50 0.5;
#X msg 18 467 \$1 100;
#X obj 534 922 *~ 1;
#X obj 513 880 r \$0-melodyvolume;
#X obj 871 890 r \$0-beatvolume;
#X obj 858 918 *~ 1;
#X obj 512 265 route palm_position;
#X obj 1081 204 route palm_position;
#X obj 456 346 s \$0-melodyvolume;
#X obj 375 293 unpack f f f;
#X obj 517 322 max 0;
#X obj 572 331 min 1;
#X obj 1171 122 unpack f f f;
#X obj 1264 179 max 0;
#X obj 1319 188 min 1;
#X obj 1364 242 s \$0-beatvolume;
#X floatatom 553 292 5 0 0 0 - - -, f 5;
#X obj 458 311 / -300;
#X obj 458 290 - 450;
#X obj 1205 145 - 450;
#X obj 1205 169 / -300;
#X obj 1365 298 route 0 4 3 2 1;
#X obj 625 409 vector-angle3;
#X obj 723 413 vector-angle3;
#X obj 821 411 vector-angle3;
#X obj 921 410 vector-angle3;
#X obj 1391 390 vector-angle3;
#X obj 1488 390 vector-angle3;
#X obj 1587 389 vector-angle3;
#X obj 1687 391 vector-angle3;
#X msg 391 367 0 0 1;
#X obj 525 518 line;
#X msg 525 494 \$1 100;
#X obj 524 397 unpack f f f;
#X obj 524 445 pack f f f;
#X msg 552 422 0;
#X msg 321 406 20;
#X msg 362 389 1.2;
#X obj 1291 469 vector-angle3;
#X obj 1291 517 line;
#X msg 1291 492 \$1 100;
#X obj 1290 395 unpack f f f;
#X obj 1290 443 pack f f f;
#X msg 1321 415 0;
#X msg 1267 330 -1 0 0;
#X msg 1237 354 1.5;
#X msg 1180 344 12;
#X obj 971 707 spigot;
#X obj 971 683 t b f;
#X obj 1026 710 spigot;
#X obj 1026 686 t b f;
#X obj 1074 711 spigot;
#X obj 1074 687 t b f;
#X obj 1120 701 spigot;
#X obj 1120 677 t b f;
#X obj 1174 704 spigot;
#X obj 1174 680 t b f;
#X msg 1632 271 10;
#X obj 1117 299 print;
#X obj 1363 182 delay;
#X msg 1390 153 stop;
#X obj 1363 127 t b b;
#X obj 1363 103 bng 15 250 50 0 empty empty empty 17 7 0 10 -262144
-1 -1;
#X msg 1363 208 0;
#X msg 1363 153 200;
#X obj 357 230 delay;
#X msg 384 201 stop;
#X obj 357 175 t b b;
#X obj 357 151 bng 15 250 50 0 empty empty empty 17 7 0 10 -262144
-1 -1;
#X msg 357 256 0;
#X msg 357 201 200;
#X obj 1385 196 loadbang;
#X obj 399 228 loadbang;
#X msg 19 50 120;
#X obj 137 765 hsl 128 15 -3 3 0 0 empty empty Octave_Offset -2 -8
0 10 -262144 -1 -1 0 1;
#X obj 717 727 +;
#X obj 251 803 * 8;
#X obj 1140 466 spigot;
#X obj 1045 330 loadbang;
#X obj 495 625 spigot;
#X obj 434 599 tgl 50 0 empty empty Scale_Control -50 -20 0 20 -262144
-1 -1 0 1;
#X obj 413 519 loadbang;
#X obj 1096 400 tgl 50 0 empty empty BPM_Control -50 -20 0 20 -262144
-1 -1 0 1;
#X obj 782 130 tgl 30 0 empty empty Disable_Leapmotion_Connection_For_Manual_Control
40 15 0 10 -262144 -1 -1 1 1;
#X obj 418 161 spigot;
#X obj 1272 88 spigot;
#X obj 625 180 == 0;
#X obj 1117 120 == 0;
#X obj 765 89 loadbang;
#X obj 1078 611 int;
#X connect 0 0 15 0;
#X connect 0 0 169 0;
#X connect 0 0 33 0;
#X connect 1 0 9 0;
#X connect 1 0 73 0;
#X connect 2 0 0 0;
#X connect 3 0 4 0;
#X connect 4 0 5 0;
#X connect 6 0 7 0;
#X connect 7 0 8 0;
#X connect 9 0 2 0;
#X connect 10 0 9 0;
#X connect 10 0 103 0;
#X connect 12 0 146 0;
#X connect 13 0 17 1;
#X connect 14 0 23 0;
#X connect 14 0 33 1;
#X connect 14 0 169 1;
#X connect 16 0 18 1;
#X connect 17 0 0 0;
#X connect 18 0 14 0;
#X connect 19 0 18 0;
#X connect 20 0 19 0;
#X connect 21 0 23 1;
#X connect 21 0 25 0;
#X connect 22 0 34 0;
#X connect 23 0 24 0;
#X connect 24 0 22 1;
#X connect 25 0 14 0;
#X connect 26 0 174 0;
#X connect 27 0 30 0;
#X connect 28 0 82 1;
#X connect 30 0 71 0;
#X connect 31 0 26 0;
#X connect 32 0 11 0;
#X connect 33 0 160 0;
#X connect 33 0 151 0;
#X connect 34 0 173 0;
#X connect 35 0 167 1;
#X connect 36 1 41 0;
#X connect 37 0 36 0;
#X connect 38 0 37 0;
#X connect 39 0 36 0;
#X connect 40 0 44 0;
#X connect 40 0 38 0;
#X connect 41 0 42 0;
#X connect 41 0 91 0;
#X connect 41 0 256 0;
#X connect 43 0 36 0;
#X connect 43 0 46 0;
#X connect 44 0 36 0;
#X connect 44 0 45 0;
#X connect 45 0 43 0;
#X connect 45 0 36 0;
#X connect 46 0 36 0;
#X connect 47 0 52 0;
#X connect 47 1 49 0;
#X connect 47 2 56 0;
#X connect 47 3 59 0;
#X connect 47 4 62 0;
#X connect 48 0 47 0;
#X connect 49 0 194 0;
#X connect 50 0 35 0;
#X connect 51 0 88 0;
#X connect 51 0 89 0;
#X connect 51 0 90 0;
#X connect 52 0 205 0;
#X connect 53 0 202 0;
#X connect 53 0 209 0;
#X connect 53 0 208 0;
#X connect 54 0 167 2;
#X connect 55 0 54 0;
#X connect 56 0 195 0;
#X connect 57 0 167 3;
#X connect 58 0 57 0;
#X connect 59 0 196 0;
#X connect 60 0 167 4;
#X connect 61 0 60 0;
#X connect 62 0 197 0;
#X connect 63 0 204 0;
#X connect 64 0 251 0;
#X connect 65 0 66 0;
#X connect 66 0 70 0;
#X connect 67 0 68 0;
#X connect 68 0 70 1;
#X connect 69 0 65 1;
#X connect 70 0 71 1;
#X connect 71 0 72 0;
#X connect 72 0 26 1;
#X connect 73 0 17 0;
#X connect 74 0 67 1;
#X connect 75 0 61 0;
#X connect 76 0 58 0;
#X connect 77 0 55 0;
#X connect 78 0 50 0;
#X connect 79 0 80 0;
#X connect 80 0 82 0;
#X connect 80 0 81 0;
#X connect 81 0 247 0;
#X connect 82 0 83 0;
#X connect 83 0 27 0;
#X connect 83 0 65 0;
#X connect 83 0 67 0;
#X connect 84 0 78 0;
#X connect 85 0 77 0;
#X connect 86 0 76 0;
#X connect 87 0 75 0;
#X connect 88 0 50 2;
#X connect 88 0 55 2;
#X connect 88 0 58 2;
#X connect 88 0 61 2;
#X connect 89 0 194 1;
#X connect 89 0 195 1;
#X connect 89 0 196 1;
#X connect 89 0 197 1;
#X connect 90 0 50 1;
#X connect 90 0 55 1;
#X connect 90 0 58 1;
#X connect 90 0 61 1;
#X connect 91 0 179 0;
#X connect 91 1 178 0;
#X connect 92 0 168 0;
#X connect 93 0 100 0;
#X connect 94 0 96 0;
#X connect 97 0 102 0;
#X connect 98 0 99 0;
#X connect 100 0 94 0;
#X connect 102 0 98 0;
#X connect 103 0 20 0;
#X connect 103 1 19 1;
#X connect 104 0 193 0;
#X connect 105 0 198 0;
#X connect 106 0 213 0;
#X connect 107 0 199 0;
#X connect 108 0 200 0;
#X connect 109 0 201 0;
#X connect 110 0 261 0;
#X connect 111 0 130 1;
#X connect 112 0 111 0;
#X connect 112 0 120 0;
#X connect 113 0 216 0;
#X connect 113 0 217 0;
#X connect 113 0 218 0;
#X connect 114 0 130 2;
#X connect 115 0 114 0;
#X connect 116 0 130 3;
#X connect 117 0 116 0;
#X connect 118 0 130 4;
#X connect 119 0 118 0;
#X connect 121 0 249 0;
#X connect 122 0 119 0;
#X connect 123 0 117 0;
#X connect 124 0 115 0;
#X connect 125 0 112 0;
#X connect 126 0 125 0;
#X connect 127 0 124 0;
#X connect 128 0 123 0;
#X connect 129 0 122 0;
#X connect 130 0 164 1;
#X connect 131 0 134 0;
#X connect 132 0 136 0;
#X connect 133 0 138 0;
#X connect 134 0 133 0;
#X connect 134 1 133 1;
#X connect 135 0 141 0;
#X connect 136 0 135 0;
#X connect 136 1 135 1;
#X connect 137 0 139 0;
#X connect 138 0 139 0;
#X connect 138 1 137 0;
#X connect 139 0 170 0;
#X connect 140 0 142 0;
#X connect 141 0 142 0;
#X connect 141 1 140 0;
#X connect 142 0 171 0;
#X connect 143 0 141 0;
#X connect 143 0 138 0;
#X connect 144 0 143 0;
#X connect 144 1 143 1;
#X connect 145 0 177 0;
#X connect 146 0 245 0;
#X connect 146 1 172 0;
#X connect 146 2 32 0;
#X connect 147 0 144 0;
#X connect 148 0 150 0;
#X connect 148 0 149 0;
#X connect 148 0 229 0;
#X connect 149 0 198 1;
#X connect 149 0 199 1;
#X connect 149 0 200 1;
#X connect 149 0 201 1;
#X connect 150 0 117 2;
#X connect 150 0 119 2;
#X connect 150 0 112 2;
#X connect 150 0 115 2;
#X connect 151 0 159 0;
#X connect 152 0 226 0;
#X connect 153 0 228 0;
#X connect 154 0 151 1;
#X connect 155 0 151 1;
#X connect 156 0 151 1;
#X connect 157 0 224 0;
#X connect 158 0 151 1;
#X connect 159 0 130 0;
#X connect 159 0 165 0;
#X connect 160 0 79 0;
#X connect 160 0 167 0;
#X connect 161 0 222 0;
#X connect 162 0 220 0;
#X connect 163 0 151 1;
#X connect 164 0 131 0;
#X connect 164 0 132 0;
#X connect 164 0 147 0;
#X connect 165 0 166 0;
#X connect 166 0 164 0;
#X connect 167 0 81 1;
#X connect 168 0 29 0;
#X connect 168 0 29 1;
#X connect 169 0 22 0;
#X connect 170 0 145 0;
#X connect 171 0 145 1;
#X connect 172 0 6 0;
#X connect 173 0 31 0;
#X connect 174 0 92 0;
#X connect 175 0 174 1;
#X connect 176 0 177 1;
#X connect 177 0 92 1;
#X connect 178 0 181 0;
#X connect 178 1 48 0;
#X connect 179 0 184 0;
#X connect 179 0 257 0;
#X connect 179 1 104 0;
#X connect 179 1 230 0;
#X connect 181 1 188 0;
#X connect 181 1 190 0;
#X connect 182 0 183 0;
#X connect 183 0 180 0;
#X connect 184 1 191 0;
#X connect 185 0 186 0;
#X connect 186 0 187 0;
#X connect 189 0 182 0;
#X connect 190 0 189 0;
#X connect 191 0 192 0;
#X connect 192 0 185 0;
#X connect 193 0 106 0;
#X connect 193 1 105 0;
#X connect 193 2 107 0;
#X connect 193 3 108 0;
#X connect 193 4 109 0;
#X connect 194 0 84 0;
#X connect 195 0 85 0;
#X connect 196 0 86 0;
#X connect 197 0 87 0;
#X connect 198 0 126 0;
#X connect 199 0 127 0;
#X connect 200 0 128 0;
#X connect 201 0 129 0;
#X connect 202 0 63 1;
#X connect 203 0 64 0;
#X connect 204 0 203 0;
#X connect 205 0 206 0;
#X connect 205 1 207 0;
#X connect 205 2 206 2;
#X connect 206 0 63 0;
#X connect 207 0 206 1;
#X connect 208 0 64 1;
#X connect 209 0 64 2;
#X connect 210 0 212 0;
#X connect 211 0 121 0;
#X connect 212 0 211 0;
#X connect 213 0 214 0;
#X connect 213 1 215 0;
#X connect 213 2 214 2;
#X connect 214 0 210 0;
#X connect 215 0 214 1;
#X connect 216 0 210 1;
#X connect 217 0 121 2;
#X connect 218 0 121 1;
#X connect 219 0 163 0;
#X connect 220 0 219 0;
#X connect 220 1 219 1;
#X connect 221 0 158 0;
#X connect 222 0 221 0;
#X connect 222 1 221 1;
#X connect 223 0 154 0;
#X connect 224 0 223 0;
#X connect 224 1 223 1;
#X connect 225 0 155 0;
#X connect 226 0 225 0;
#X connect 226 1 225 1;
#X connect 227 0 156 0;
#X connect 228 0 227 0;
#X connect 228 1 227 1;
#X connect 229 0 112 1;
#X connect 229 0 117 1;
#X connect 229 0 119 1;
#X connect 229 0 115 1;
#X connect 231 0 235 0;
#X connect 232 0 231 0;
#X connect 233 0 236 0;
#X connect 233 1 232 0;
#X connect 234 0 233 0;
#X connect 235 0 187 0;
#X connect 236 0 231 0;
#X connect 237 0 241 0;
#X connect 238 0 237 0;
#X connect 239 0 242 0;
#X connect 239 1 238 0;
#X connect 240 0 239 0;
#X connect 241 0 180 0;
#X connect 242 0 237 0;
#X connect 243 0 235 0;
#X connect 244 0 241 0;
#X connect 245 0 3 0;
#X connect 246 0 248 0;
#X connect 247 0 74 0;
#X connect 247 0 69 0;
#X connect 247 0 27 1;
#X connect 248 0 247 1;
#X connect 249 0 110 0;
#X connect 250 0 254 0;
#X connect 251 0 28 0;
#X connect 252 0 251 1;
#X connect 253 0 252 0;
#X connect 254 0 249 1;
#X connect 255 0 180 0;
#X connect 255 0 187 0;
#X connect 255 0 258 0;
#X connect 255 0 259 0;
#X connect 256 0 240 0;
#X connect 257 0 234 0;
#X connect 258 0 256 1;
#X connect 259 0 257 1;
#X connect 260 0 255 0;
#X connect 261 0 153 0;
#X connect 261 0 152 0;
#X connect 261 0 157 0;
#X connect 261 0 161 0;
#X connect 261 0 162 0;
