#N canvas 850 107 1057 879 10;
#X obj 24 36 inlet;
#X obj 83 36 inlet;
#X text 21 14 Scale;
#X text 84 14 Note;
#X obj 92 361 outlet;
#X obj 90 317 mtof;
#X msg 141 100 \; \$1-circle 0 1 8 3 10 5 12 7 2 9 4 11 6;
#X obj 37 113 tabread \$0-major;
#X obj 12 91 tabread \$0-circle;
#X obj 70 221 +;
#X obj 89 247 +;
#X floatatom 149 266 5 0 0 0 - - -, f 5;
#X obj 137 172 loadbang;
#X obj 184 201 bng 15 250 50 0 empty empty empty 17 7 0 10 -262144
-1 -1;
#X obj 213 41 pack \$0;
#X obj 223 8 bng 15 250 50 0 empty empty empty 17 7 0 10 -262144 -1
-1;
#X obj 138 61 pack \$0;
#X msg 212 66 \; \$1-major 0 0 2 4 5 7 9 11 12;
#X obj 377 28 array define \$0-circle;
#X obj 345 48 array define \$0-major;
#X obj 343 7 loadbang;
#X obj 279 29 delay 10;
#X obj 21 188 f 1;
#X obj 76 161 f 0;
#X obj 32 135 bng 15 250 50 0 empty empty empty 17 7 0 10 -262144 -1
-1;
#X obj 89 61 mod 8;
#X obj 52 61 div 8;
#X obj 109 154 * 12;
#X obj 101 290 +;
#X obj 100 270 bng 15 250 50 0 empty empty empty 17 7 0 10 -262144
-1 -1;
#X obj 9 60 mod 12;
#X obj 131 210 f 56;
#X connect 0 0 30 0;
#X connect 1 0 25 0;
#X connect 1 0 26 0;
#X connect 5 0 4 0;
#X connect 7 0 23 0;
#X connect 7 0 24 0;
#X connect 8 0 22 0;
#X connect 9 0 10 0;
#X connect 10 0 11 0;
#X connect 10 0 28 0;
#X connect 12 0 31 0;
#X connect 13 0 31 0;
#X connect 14 0 17 0;
#X connect 15 0 21 0;
#X connect 16 0 6 0;
#X connect 20 0 19 0;
#X connect 20 0 18 0;
#X connect 20 0 21 0;
#X connect 21 0 14 0;
#X connect 21 0 16 0;
#X connect 22 0 9 0;
#X connect 23 0 9 1;
#X connect 24 0 22 0;
#X connect 25 0 7 0;
#X connect 26 0 27 0;
#X connect 27 0 28 1;
#X connect 27 0 29 0;
#X connect 28 0 5 0;
#X connect 29 0 28 0;
#X connect 30 0 8 0;
#X connect 31 0 10 1;
